PathFileType	4	(X/Y/Z)	./resultDataOpenSim/trcMotMarkerGrf/sub06/qtm-15-07.trc
DataRate	CameraRate	NumFrames	NumMarkers	Units	OrigDataRate	OrigDataStartFrame	OrigNumFrames
250.000000	250.000000	15	24	m	250.000000	464	530
Frame#	Time	L.Toe.Tip			R.Toe.Tip			L.Ankle.Lat			R.Ankle.Lat			L.Ankle.Med			R.Ankle.Med			L.Heel			R.Heel			L.Knee.Lat			R.Knee.Lat			L.Knee.Med			R.Knee.Med			L.Thigh.Upper			R.Thigh.Upper			L.ASIS			R.ASIS			V.Sacral			L.Acromium			R.Acromium			C7			L.Elbow			R.Elbow			L.Wrist.Lat			R.Wrist.Lat
		X1	Y1	Z1	X2	Y2	Z2	X3	Y3	Z3	X4	Y4	Z4	X5	Y5	Z5	X6	Y6	Z6	X7	Y7	Z7	X8	Y8	Z8	X9	Y9	Z9	X10	Y10	Z10	X11	Y11	Z11	X12	Y12	Z12	X13	Y13	Z13	X14	Y14	Z14	X15	Y15	Z15	X16	Y16	Z16	X17	Y17	Z17	X18	Y18	Z18	X19	Y19	Z19	X20	Y20	Z20	X21	Y21	Z21	X22	Y22	Z22	X23	Y23	Z23	X24	Y24	Z24

464	1.852	1.7072281	0.034391201	-0.11589731	1.3671447	0.089935291	0.092536677	1.5816557	0.067743834	-0.13717107	1.3287709	0.22151935	0.11625209	1.5783811	0.080758562	-0.04944941	1.3626704	0.2186547	0.034648985	1.5064572	0.039832543	-0.092303512	1.2863253	0.25608012	0.051652728	1.6487965	0.43826876	-0.14804929	1.632688	0.44358578	0.14640125	1.6201754	0.43493565	-0.029246835	1.6331059	0.42232622	0.013199921	1.5659061	0.82398427	-0.21085006	1.5196061	0.79531437	0.13183506	1.6305467	0.86808271	-0.15896069	1.6116921	0.86074298	0.088639503	1.4362215	0.93736085	-0.040557961	1.5729822	1.3416335	-0.23111379	1.5525631	1.3355121	0.13260696	1.480198	1.3767425	-0.055014275	1.5093817	1.0258774	-0.27649543	1.5130175	1.0133499	0.19823472	1.6458706	0.82351647	-0.31246489	1.7181735	0.86972737	0.16774706
465	1.856	1.7072321	0.034408241	-0.11590545	1.383058	0.089457163	0.093040383	1.5816273	0.067873388	-0.13711039	1.3413035	0.22014969	0.11584217	1.5785538	0.080889646	-0.049439442	1.3756205	0.21751718	0.034352764	1.5064741	0.03999942	-0.092149952	1.2983632	0.25347755	0.051057265	1.6494295	0.43816809	-0.14783119	1.642491	0.44640142	0.14628067	1.620794	0.43496708	-0.029036035	1.6433022	0.4254821	0.012896464	1.5702054	0.82473309	-0.21101661	1.5247614	0.79744174	0.13207148	1.635069	0.86899312	-0.15946052	1.616651	0.8626441	0.08802206	1.4412305	0.93851115	-0.040833982	1.5781213	1.3433587	-0.23134303	1.5574749	1.3365673	0.13225536	1.4852172	1.3779775	-0.055359734	1.5168178	1.0266622	-0.27719443	1.5154117	1.0150717	0.19724961	1.6568736	0.82640079	-0.31123353	1.7165926	0.86615575	0.17140208
466	1.86	1.7072488	0.034421295	-0.11591622	1.399062	0.088883803	0.093533715	1.5816111	0.06800106	-0.13706023	1.3539075	0.21858992	0.11542251	1.5787737	0.081019119	-0.049439485	1.3886728	0.21621296	0.034057923	1.5065074	0.040170447	-0.09201449	1.3105101	0.2506389	0.050442432	1.6500649	0.43805122	-0.14762142	1.6521922	0.4492045	0.14614001	1.6212774	0.43502877	-0.028884767	1.6528433	0.42862956	0.012644356	1.5742103	0.82545763	-0.21122796	1.5315138	0.79932882	0.13183326	1.639595	0.8698969	-0.15990587	1.6217959	0.86453996	0.087352038	1.4461557	0.93962242	-0.041080603	1.5832298	1.3450008	-0.23157358	1.5623899	1.3375607	0.13189551	1.4902278	1.3791563	-0.055710995	1.5242972	1.0274226	-0.27795777	1.51781	1.0167902	0.19632658	1.6680827	0.82931968	-0.30994218	1.7148842	0.86277276	0.17510661
467	1.864	1.7072753	0.034426323	-0.11592712	1.4151687	0.088226617	0.094007451	1.5816053	0.068122425	-0.13701342	1.3665893	0.21683347	0.11499824	1.5790149	0.081147117	-0.049436195	1.4018286	0.21474911	0.033771015	1.5065465	0.040350316	-0.091896403	1.3227793	0.24757253	0.049802821	1.6507079	0.43792693	-0.14742034	1.6617817	0.45198407	0.14598741	1.6216158	0.43514013	-0.028734516	1.6620113	0.4317317	0.012428561	1.5780635	0.82615314	-0.2114518	1.5388111	0.80110186	0.13155958	1.6440766	0.87079991	-0.16030329	1.6270123	0.86640537	0.086667539	1.4510171	0.94068977	-0.041276951	1.5883229	1.3465442	-0.2318027	1.5673032	1.3384899	0.13154364	1.4952281	1.3802748	-0.056050023	1.5317827	1.0281569	-0.27875	1.5200698	1.0184631	0.1954503	1.6796117	0.83225777	-0.30857742	1.7130517	0.85958225	0.17885144
468	1.868	1.7073066	0.034423302	-0.11593686	1.4315566	0.087529065	0.094486634	1.5816087	0.068236858	-0.13696124	1.3793629	0.21488303	0.11457426	1.5792441	0.081274994	-0.049420557	1.4150611	0.21312489	0.033482504	1.5065829	0.040545627	-0.091778999	1.3351214	0.24427793	0.049147635	1.6513399	0.43780192	-0.14723845	1.6712642	0.45472869	0.14583285	1.621772	0.43532326	-0.028510486	1.6711272	0.43481152	0.012240013	1.582158	0.82680504	-0.21162075	1.5459322	0.80285013	0.13146876	1.64849	0.8717103	-0.16066495	1.6322434	0.86822337	0.085994056	1.4558345	0.94169809	-0.041403252	1.5934352	1.3480005	-0.23203395	1.5722193	1.3393475	0.13121446	1.5002102	1.3813279	-0.056366287	1.5392391	1.0288618	-0.2795311	1.5221435	1.0200722	0.19464148	1.6913991	0.83521807	-0.30714813	1.7110924	0.85658679	0.18262695
469	1.872	1.7073379	0.034415756	-0.11594578	1.448356	0.086827557	0.094998584	1.5816191	0.06834754	-0.13689861	1.3922321	0.21274667	0.11415507	1.5794288	0.081403383	-0.049388185	1.4283551	0.21133482	0.033190178	1.5066207	0.040756271	-0.091644085	1.3474367	0.24075012	0.048489274	1.6519383	0.43768191	-0.14708657	1.6806453	0.45743388	0.14567849	1.6217609	0.43557844	-0.028196418	1.6802679	0.43789931	0.012078529	1.5866572	0.82739824	-0.21172386	1.552664	0.80463395	0.13156047	1.652917	0.87262738	-0.16098452	1.6374797	0.86998167	0.085344022	1.4606349	0.94264149	-0.041455735	1.5985826	1.3493862	-0.23226419	1.5771371	1.3401308	0.13091255	1.50517	1.382315	-0.056658746	1.5466348	1.0295382	-0.28026243	1.5241738	1.0216435	0.19389769	1.7031765	0.83822768	-0.30568438	1.7090058	0.85378395	0.18642756
470	1.876	1.7073654	0.034407476	-0.11595475	1.465405	0.086104752	0.095547302	1.5816325	0.068458377	-0.13682584	1.4051841	0.21043566	0.11374486	1.5795498	0.081531186	-0.049338655	1.441717	0.20937776	0.032901384	1.5066715	0.04097768	-0.091487737	1.3596713	0.23699726	0.047835325	1.6525045	0.43757099	-0.14696464	1.6899063	0.46010074	0.1455137	1.6218263	0.4358595	-0.027853445	1.6893536	0.44097155	0.011949527	1.5912462	0.82792369	-0.21183238	1.558806	0.80653832	0.13182672	1.6575291	0.87353594	-0.16123479	1.6427247	0.87167401	0.084722562	1.4654462	0.94352576	-0.041455055	1.6037388	1.3507124	-0.2324785	1.5820502	1.3408452	0.13063045	1.510114	1.3832429	-0.056930023	1.5539478	1.0301941	-0.28091156	1.5263034	1.0232156	0.19319135	1.7146667	0.84131676	-0.30421801	1.7068041	0.85116917	0.1902591
471	1.88	1.7073895	0.034399923	-0.11596444	1.482378	0.085309235	0.096120177	1.5816471	0.068572726	-0.13674662	1.4182079	0.20796357	0.11334518	1.5796212	0.081662364	-0.049276516	1.455154	0.20726418	0.03261328	1.5067391	0.041206996	-0.09132126	1.3719801	0.23305629	0.047186952	1.6530659	0.4374689	-0.14686171	1.6990188	0.46272977	0.14532327	1.6223602	0.43610827	-0.027566349	1.6983082	0.44396658	0.011859126	1.5956558	0.82839204	-0.21196335	1.5642139	0.8085499	0.13228642	1.6624087	0.87440787	-0.16140754	1.6479801	0.87330138	0.084129193	1.4702764	0.94436262	-0.041436226	1.6088604	1.3519818	-0.23266706	1.5869634	1.3414981	0.13035711	1.5150511	1.3841163	-0.0571854	1.5611897	1.0308352	-0.28148812	1.5284851	1.024788	0.19249789	1.7258312	0.8444918	-0.30275769	1.7045154	0.84874054	0.19413827
472	1.884	1.7074153	0.034392914	-0.11597553	1.4991027	0.084416453	0.096706634	1.5816655	0.068694086	-0.13666476	1.4313069	0.20534306	0.1129517	1.5796841	0.081809608	-0.049207321	1.4686688	0.2050201	0.032301363	1.5068167	0.041441286	-0.091159804	1.3846846	0.22896638	0.046542352	1.6536523	0.43737487	-0.14676764	1.7079861	0.46531874	0.14509973	1.6234948	0.43630943	-0.027377586	1.7071162	0.44685564	0.011801575	1.6000616	0.82883308	-0.21202024	1.5691521	0.8104631	0.13289143	1.6673576	0.87520177	-0.16155381	1.6532484	0.87486496	0.08355983	1.4751126	0.94516277	-0.04142997	1.6139339	1.3531907	-0.23283693	1.5918884	1.3420933	0.13008592	1.5199827	1.3849316	-0.057438123	1.5684165	1.0314592	-0.28205962	1.5305696	1.0263232	0.19181356	1.7368144	0.84773975	-0.30129117	1.7021713	0.8465012	0.19806732
473	1.888	1.7074485	0.034385895	-0.11598964	1.5155782	0.083434449	0.097301913	1.5816919	0.068824591	-0.13657892	1.4445014	0.20257789	0.11255844	1.5797663	0.081982171	-0.049129341	1.4822607	0.20268184	0.031925392	1.5068949	0.041676302	-0.091007046	1.3978833	0.22471282	0.04590649	1.6542773	0.43729199	-0.14668382	1.7168314	0.46786346	0.14484354	1.6248736	0.43648045	-0.027256892	1.7158103	0.44966412	0.01175134	1.6046593	0.82925337	-0.211953	1.574124	0.81210704	0.1335188	1.6720072	0.87588566	-0.16175363	1.6585273	0.87635916	0.083011705	1.4799399	0.94593019	-0.041442075	1.6189801	1.3543311	-0.23299764	1.5968251	1.342629	0.12981719	1.5249061	1.385681	-0.057698851	1.575687	1.0320564	-0.28269638	1.5325083	1.027791	0.1911528	1.7477474	0.85104412	-0.29980279	1.6997836	0.84445412	0.20200078
474	1.892	1.7074918	0.034376912	-0.1160089	1.5318583	0.082375096	0.097912666	1.5817268	0.068962679	-0.13647791	1.4578231	0.19966157	0.11217013	1.5798633	0.082170831	-0.049034333	1.4959312	0.20026661	0.031469714	1.5069674	0.041912822	-0.090845415	1.4112797	0.22024002	0.04529022	1.6549371	0.43722195	-0.14662106	1.7255485	0.47035553	0.14455695	1.6260715	0.43663452	-0.02713272	1.7244153	0.4524217	0.011679698	1.6092904	0.82961853	-0.21185046	1.5793965	0.81356791	0.13405889	1.6762526	0.87647471	-0.16202607	1.6638088	0.87777625	0.082485711	1.4847556	0.94665793	-0.04144938	1.6240242	1.355392	-0.23314842	1.6017647	1.3431025	0.12955859	1.5298211	1.3863539	-0.057960105	1.5830063	1.0326128	-0.28340391	1.5344365	1.0291825	0.19052921	1.7586683	0.85439218	-0.298286	1.6973395	0.84259321	0.20586299
475	1.896	1.7075435	0.034362333	-0.11603413	1.5480879	0.081252819	0.098564851	1.5817666	0.069105339	-0.13634858	1.4712932	0.19658922	0.11180244	1.5799656	0.082352456	-0.048920491	1.5097016	0.19774471	0.030993712	1.5070336	0.042157971	-0.090644957	1.4244909	0.21553124	0.044716112	1.6556184	0.43715969	-0.14658857	1.7341122	0.4727816	0.14424449	1.6270984	0.43677786	-0.026965383	1.7329078	0.45512424	0.011582588	1.6137363	0.8298986	-0.21180999	1.5849333	0.81501784	0.13447111	1.6803768	0.87701264	-0.16231423	1.6690888	0.87911303	0.081984404	1.48957	0.94733207	-0.041425397	1.6290747	1.3563631	-0.23328418	1.6067064	1.3435112	0.12932251	1.5347279	1.3869438	-0.058205501	1.5903311	1.0331183	-0.28413141	1.536592	1.0305087	0.18994264	1.7695001	0.85778265	-0.29675	1.6948233	0.84090466	0.2096106
476	1.9	1.707599	0.034340379	-0.11606408	1.5644557	0.080083731	0.099286051	1.5818092	0.069253314	-0.13619311	1.4849022	0.19336822	0.11146598	1.5800797	0.082510115	-0.04879832	1.5236029	0.19506894	0.030591045	1.5071011	0.042416218	-0.090389724	1.4372688	0.21063001	0.044237214	1.6563065	0.43709829	-0.1465874	1.7425244	0.47512875	0.14391253	1.6282002	0.43691435	-0.0267706	1.7412383	0.45774687	0.011481394	1.6179859	0.83009443	-0.21182994	1.5906229	0.81649047	0.13477896	1.6846589	0.87751232	-0.16256857	1.6743711	0.88036803	0.08150873	1.4943883	0.94794656	-0.041361394	1.6341235	1.3572429	-0.2334032	1.6116546	1.3438501	0.12911657	1.5396266	1.3874576	-0.05842423	1.5976216	1.0335711	-0.2848325	1.539065	1.0318108	0.189392	1.780052	0.86123202	-0.29522042	1.6922315	0.83937636	0.21325664
477	1.904	1.7076539	0.034313954	-0.11609713	1.5810445	0.078884417	0.10008352	1.5818554	0.069410429	-0.13602933	1.4986288	0.19001598	0.11115896	1.5802161	0.082645638	-0.048681427	1.5376375	0.19223284	0.030288544	1.5071795	0.042684952	-0.090096459	1.449628	0.20559735	0.043895802	1.6569941	0.43703414	-0.14661358	1.7508114	0.47739038	0.14356236	1.6294601	0.43703992	-0.026575057	1.7493793	0.46026804	0.011395498	1.6221315	0.83021881	-0.21183021	1.5964073	0.81792864	0.1350277	1.6891426	0.8779457	-0.16279135	1.6796612	0.88153572	0.081056745	1.4992021	0.94850553	-0.041262522	1.6391607	1.3580398	-0.23350995	1.6166056	1.3441177	0.12893463	1.5445195	1.387912	-0.058612658	1.6048666	1.0339684	-0.28549638	1.5416051	1.0331196	0.1888954	1.7901775	0.86475601	-0.2937217	1.6895796	0.83800197	0.2168342
478	1.908	1.7077083	0.034288154	-0.11613285	1.5978573	0.077693797	0.10094699	1.5819063	0.069578091	-0.13587432	1.5124724	0.18654988	0.11087462	1.5803824	0.082775537	-0.048578089	1.5518241	0.18927848	0.030041205	1.5072743	0.042960565	-0.089802534	1.4620278	0.20048305	0.043639058	1.6576891	0.43696472	-0.14666429	1.7589909	0.47956603	0.14318934	1.6308228	0.43714611	-0.026390223	1.7573393	0.46267637	0.011324731	1.6262582	0.83028515	-0.21169275	1.6022632	0.81930163	0.13524183	1.6937461	0.87827444	-0.16301235	1.6849553	0.8826074	0.080624303	1.5040004	0.94900591	-0.041149434	1.6441854	1.358762	-0.2336109	1.6215506	1.3443248	0.12876511	1.5494042	1.3883277	-0.058777531	1.612084	1.0343078	-0.28613832	1.5438345	1.0343941	0.18847661	1.8000197	0.86833287	-0.2922424	1.6869168	0.83678051	0.22035782
